<?xml version="1.0" encoding="UTF-8"?>
<!DOCTYPE svg PUBLIC "-//W3C//DTD SVG 1.1//EN" "http://www.w3.org/Graphics/SVG/1.1/DTD/svg11.dtd">
<!-- Creator: CorelDRAW 2017 -->
<svg xmlns="http://www.w3.org/2000/svg" xml:space="preserve" width="31.5mm" height="31mm" version="1.1" style="shape-rendering:geometricPrecision; text-rendering:geometricPrecision; image-rendering:optimizeQuality; fill-rule:evenodd; clip-rule:evenodd"
viewBox="0 0 3150 3100"
 xmlns:xlink="http://www.w3.org/1999/xlink">
 <defs>
  <style type="text/css">
   <![CDATA[
    .str0 {stroke:#FEFEFE;stroke-width:100}
    .str1 {stroke:#FEFEFE;stroke-width:20}
    .fil0 {fill:none}
    .fil1 {fill:#FEFEFE;fill-rule:nonzero}
   ]]>
  </style>
 </defs>
 <g id="Capa_x0020_1">
  <metadata id="CorelCorpID_0Corel-Layer"/>
  <path class="fil1 str1" d="M2252 1133l288 -288 111 111 66 -511 -511 66 111 111 -288 288 222 222zm144 -144m200 -89m89 -200m-222 -222m-200 89m-89 200m-33 255">
      <animateTransform id="fullscreen"
        attributeName="transform"
        attributeType="XML"
        type="translate"
        dur="0.8s"
        values="0,150;150,-150;0,150"
        repeatCount="indefinite"/>
  </path>
  <path class="fil1 str1" d="M850 2011l-288 288 -111 -111 -66 511 511 -66 -111 -111 288 -288 -222 -222zm-144 144m-200 89m-89 200m222 222m200 -89m89 -200m33 -255">
      <animateTransform id="fullscreen"
        attributeName="transform"
        attributeType="XML"
        type="translate"
        dur="0.8s"
        values="150,0;-150,150;150,0"
        repeatCount="indefinite"/>
  </path>
  <rect class="fil0 str0" x="91" y="126" width="2974" height="2858" rx="400" ry="400"/>
 </g>
</svg>
