<?xml version="1.0" encoding="UTF-8"?>
<!DOCTYPE svg PUBLIC "-//W3C//DTD SVG 1.1//EN" "http://www.w3.org/Graphics/SVG/1.1/DTD/svg11.dtd">
<!-- Creator: CorelDRAW 2017 -->
<svg xmlns="http://www.w3.org/2000/svg" xml:space="preserve" width="254mm" height="254mm" version="1.1" style="shape-rendering:geometricPrecision; text-rendering:geometricPrecision; image-rendering:optimizeQuality; fill-rule:evenodd; clip-rule:evenodd"
viewBox="0 0 25400 25400"
 xmlns:xlink="http://www.w3.org/1999/xlink">
 <defs>
  <style type="text/css">
   <![CDATA[
    .str0 {stroke:black;stroke-width:264.58}
    .fil0 {fill:#336699}
   ]]>
  </style>
 </defs>
 <g id="Capa_x0020_1">
  <metadata id="CorelCorpID_0Corel-Layer"/>
  <path class="fil0 str0" d="M12929 1329c2677,0 4848,2205 4848,4925 0,2720 -2170,4925 -4848,4925 -2677,0 -4848,-2205 -4848,-4925 0,-2720 2170,-4925 4848,-4925zm-222 -638c6555,0 11869,5314 11869,11869 0,2837 -996,5441 -2656,7483l0 -2669c0,-3386 -2770,-6156 -6156,-6156l-5387 0c-3386,0 -6156,2770 -6156,6156l0 3483c-2093,-2140 -3383,-5068 -3383,-8297 0,-6555 5314,-11869 11869,-11869zm5937 22148c-125,72 -252,142 -380,210l0 -1635 380 0 0 1425zm-10768 565c-128,-57 -254,-116 -380,-178l0 -1813 380 0 0 1990z"/>
 </g>
</svg>
