<?xml version="1.0" encoding="UTF-8"?>
<!DOCTYPE svg PUBLIC "-//W3C//DTD SVG 1.1//EN" "http://www.w3.org/Graphics/SVG/1.1/DTD/svg11.dtd">
<!-- Creator: CorelDRAW 2017 -->
<svg xmlns="http://www.w3.org/2000/svg" xml:space="preserve" width="254mm" height="254mm" version="1.1" style="shape-rendering:geometricPrecision; text-rendering:geometricPrecision; image-rendering:optimizeQuality; fill-rule:evenodd; clip-rule:evenodd"
viewBox="0 0 25400 25400"
 xmlns:xlink="http://www.w3.org/1999/xlink">
 <defs>
  <style type="text/css">
   <![CDATA[
    .str0 {stroke:black;stroke-width:264.58}
    .str1 {stroke:black;stroke-width:20}
    .fil3 {fill:black}
    .fil0 {fill:#336699}
    .fil1 {fill:#FF7100}
    .fil2 {fill:#FF7200}
   ]]>
  </style>
 </defs>
 <g id="Capa_x0020_1">
  <metadata id="CorelCorpID_0Corel-Layer"/>
  <circle class="fil0 str0" cx="12706" cy="12560" r="11869"/>
  <g id="_1961190662256">
   <path class="fil1" d="M17526 17941l0 0zm2122 -3464l0 548c-3,114 -24,355 -36,460 -9,80 -17,152 -24,230 -40,430 -226,1272 -361,1686 -124,381 -255,758 -404,1128l-156 360c-15,35 -24,54 -40,87l-73 151c-100,202 -216,399 -340,586l-219 296c-79,98 -264,320 -361,401 -49,40 -81,87 -134,128l-135 119c-237,199 -489,372 -755,531 -328,196 -673,363 -1032,507 -182,73 -375,140 -562,200 -269,86 -542,147 -820,203 -71,14 -145,27 -222,40 -223,37 -452,74 -676,86 -160,9 -317,30 -486,30 -44,0 -63,7 -106,8l-34 0c-38,0 -77,0 -115,0l-400 0c-118,-2 -235,-5 -346,-15l-239 -15c-276,-9 -848,-107 -1113,-172 -204,-50 -405,-101 -602,-167 -694,-233 -1261,-536 -1830,-987 -24,-19 -47,-38 -69,-58 -17,-16 -21,-16 -37,-30 -13,-11 -18,-18 -31,-29 -73,-59 -131,-126 -204,-185 -47,-38 -83,-89 -124,-130 -107,-107 -200,-222 -296,-339 -41,-51 -74,-95 -113,-149l-157 -224c-123,-183 -223,-374 -323,-573 -227,-454 -341,-915 -369,-1425 -7,-137 6,-346 21,-487 9,-83 15,-146 27,-227 65,-444 188,-826 294,-1245 35,-136 75,-261 109,-399 120,-485 252,-782 80,-1296 -22,-66 -42,-122 -71,-183 -15,-32 -29,-56 -41,-86 -87,-213 -372,-592 -519,-766l-324 -378c-11,-12 -19,-17 -30,-30 -19,-22 -47,-44 -55,-72l0 0c22,11 46,15 73,25 26,10 45,15 72,25 221,77 446,193 645,312 233,139 456,306 647,496 34,34 64,62 97,97 20,20 24,32 45,53 112,112 199,248 284,381 13,21 25,40 36,61 12,22 20,33 32,57 142,280 229,533 277,866 18,127 13,162 19,272 2,34 8,41 8,82 1,114 -13,242 -23,359 -19,222 -78,425 -127,635 157,-105 377,-467 456,-643 259,-582 258,-1222 79,-1850 -78,-275 -192,-527 -318,-780l-66 -121c-24,-39 -41,-75 -64,-115l-214 -339c-25,-38 -44,-71 -68,-112 -44,-76 -83,-151 -124,-234 -126,-251 -232,-516 -311,-787 -98,-333 -172,-662 -176,-1019 -1,-40 -7,-44 -8,-82 -4,-131 22,-384 38,-501 32,-232 130,-556 251,-758 105,-176 107,-204 251,-384l128 -149c17,-17 28,-28 45,-45l141 -135c71,-57 286,-251 357,-270l-85 184c-198,476 -268,1068 -146,1565 93,380 239,688 460,982 20,27 35,48 54,73l242 281c69,82 261,243 347,318 69,60 146,114 219,169 211,159 388,258 587,459 12,12 21,22 34,33 74,62 161,161 224,232l227 296c173,259 230,406 323,693 13,40 -11,-28 4,11 0,1 2,6 2,5 0,-1 1,3 2,5 7,-30 9,-69 14,-98 35,-205 94,-407 135,-612 56,-278 58,-488 -7,-762 -53,-224 -107,-456 -190,-669 -61,-158 -115,-312 -186,-464l-209 -433c-96,-191 -201,-372 -296,-563 -47,-95 -95,-189 -142,-284 -325,-649 -490,-1373 -419,-2108 24,-244 76,-478 157,-703 77,-212 165,-403 273,-586 103,-175 219,-347 354,-498 134,-151 270,-303 426,-434 13,-11 18,-19 30,-29 353,-314 853,-622 1284,-801 53,-22 97,-44 152,-65 24,-9 48,-19 75,-30 21,-8 52,-23 76,-29 -5,18 -31,64 -42,85 -17,31 -28,49 -45,82 -29,58 -55,104 -80,166 -25,60 -56,118 -78,176 -71,188 -136,369 -178,569 -71,335 -85,572 -69,910 26,551 217,1061 453,1534 82,165 175,319 269,478 91,153 193,300 292,448 18,27 34,47 52,75 146,220 460,628 642,853l576 664c19,21 39,39 60,60 44,44 83,83 127,127 25,25 43,36 67,60 409,405 722,727 1015,1218l134 232c228,423 412,932 493,1494 11,79 16,144 27,227 4,27 10,85 12,115l8 358c1,228 -32,453 -75,672l-104 389 81 -188c26,-65 51,-130 75,-194 127,-340 222,-696 293,-1052 109,-547 126,-913 126,-1487 0,-168 -16,-243 -22,-381l-41 -355c-96,-624 -260,-1168 -482,-1662 -33,-72 -139,-309 -173,-365 -18,-30 -30,-56 -46,-89 -76,-153 -256,-447 -352,-590l-164 -239c-16,-24 -43,-53 -49,-78 84,45 340,265 436,341 104,82 354,312 466,416l594 616c21,22 30,37 52,60 20,21 27,34 49,56 74,74 371,455 438,548 17,24 31,41 48,64 145,192 311,449 436,655l384 722c22,54 45,96 67,149 95,226 162,399 239,635 203,621 288,1241 287,1910 0,46 -8,58 -8,104 0,167 -17,339 -39,506 -8,59 -20,126 -28,189 -16,122 -48,255 -72,368 -14,65 -27,116 -44,180 -89,354 -279,866 -444,1200l-150 291c-14,28 -24,45 -40,72l-237 413c34,-23 100,-109 133,-144 17,-18 22,-29 41,-49l163 -196c336,-431 536,-716 823,-1172 24,-38 43,-75 66,-113 45,-76 89,-155 134,-232 11,-19 19,-40 31,-59l94 -175c82,-164 159,-321 234,-491 74,-169 139,-345 206,-518 51,-131 93,-273 130,-408l30 -105c7,-21 3,-15 15,-30 0,78 14,155 15,234zm-2114 3457l-7 7 7 -7zm-1711 -2757c1,-1 2,1 2,2l-2 -2zm7 -15c0,-19 12,-1 4,0 0,0 -4,21 -4,0zm7 -22l2 2c0,0 -3,-1 -2,-2zm15 -22l-4 16 4 -16z"/>
   <path class="fil2" d="M13320 4351c0,303 -7,436 78,737 44,155 105,279 171,412 33,67 68,122 106,185l173 261c26,34 184,240 189,259 87,-2 206,-233 241,-297 111,-198 179,-338 265,-550 13,-33 25,-63 37,-98 13,-39 23,-60 34,-100l58 -211c35,-150 30,-252 30,-404 0,-360 -215,-955 -306,-1330 -74,-303 -105,-691 -3,-997 12,-37 26,-86 40,-117 -24,9 -6,0 -28,24 -10,11 -15,16 -26,26 -22,22 -28,35 -48,56 -104,108 -197,220 -291,337 -440,544 -720,1097 -720,1806z"/>
   <path class="fil2" d="M15471 5285c0,235 -77,465 -137,647l-46 148c-108,378 -142,584 15,958 76,181 221,470 363,593 29,-19 97,-104 120,-134 74,-98 146,-190 210,-298 203,-337 241,-640 184,-1039 -45,-317 -247,-691 -471,-926l-119 -135c-46,-45 -156,-172 -192,-196 3,40 75,166 75,381z"/>
  </g>
  <path class="fil3 str1" d="M7035 7524l8898 0c372,0 693,187 834,453l-734 143 -556 0 0 1012 134 0c1,233 10,495 24,774l-158 0 0 1012 220 0c17,257 36,517 54,774l-273 0 0 1012 338 0c15,278 26,539 31,774l-369 0 0 1012 294 0c-19,52 -43,88 -71,105 -254,155 -584,138 -942,110l0 -1228 -6474 0 0 4586 3542 0c147,198 330,379 544,536l-5334 0c-501,0 -910,-339 -910,-754l0 -9570c0,-415 410,-754 910,-754zm-191 596l719 0 0 1012 -719 0 0 -1012zm0 1787l719 0 0 1012 -719 0 0 -1012zm0 1787l719 0 0 1012 -719 0 0 -1012zm0 1787l719 0 0 1012 -719 0 0 -1012zm0 1787l719 0 0 1012 -719 0 0 -1012zm0 1787l719 0 0 1012 -719 0 0 -1012zm1439 -8934l6474 0 0 4586 -6474 0 0 -4586zm9508 8487c0,1230 -1329,2656 -2968,2656 -1639,0 -2968,-997 -2968,-2226 0,-543 268,-1293 937,-1679 438,-253 1043,-452 1640,-469 556,-16 1108,152 1484,-78 385,-236 -151,-4080 -78,-5591 17,-356 286,-560 391,-581l721 -140c1107,78 3334,770 3893,1616 560,846 -195,2044 -573,2656 -378,612 -378,638 -339,260 39,-378 -96,-994 -188,-1424 -91,-430 -138,-672 -450,-789 -312,-117 -1125,-538 -1424,-461 -299,77 -44,6036 -78,6249z"/>
 </g>
</svg>
