<?xml version="1.0" encoding="UTF-8"?>
<!DOCTYPE svg PUBLIC "-//W3C//DTD SVG 1.1//EN" "http://www.w3.org/Graphics/SVG/1.1/DTD/svg11.dtd">
<!-- Creator: CorelDRAW 2017 -->
<svg xmlns="http://www.w3.org/2000/svg" xml:space="preserve" width="25.4mm" height="25.4mm" version="1.1" style="shape-rendering:geometricPrecision; text-rendering:geometricPrecision; image-rendering:optimizeQuality; fill-rule:evenodd; clip-rule:evenodd"
viewBox="0 0 2540 2540"
 xmlns:xlink="http://www.w3.org/1999/xlink">
 <defs>
  <style type="text/css">
   <![CDATA[
    .str1 {stroke:black;stroke-width:79.37}
    .str0 {stroke:black;stroke-width:20}
    .fil3 {fill:none}
    .fil2 {fill:black}
    .fil0 {fill:#FF7100}
    .fil1 {fill:#FF7200}
   ]]>
  </style>
 </defs>
 <g id="Capa_x0020_1">
  <metadata id="CorelCorpID_0Corel-Layer"/>
  <g id="_1962465506736">
   <path class="fil0" d="M1679 1682l0 0zm160 -262l0 41c0,9 -2,27 -3,35 -1,6 -1,11 -2,17 -3,33 -17,96 -27,127 -9,29 -19,57 -31,85l-12 27c-1,3 -2,4 -3,7l-6 11c-8,15 -16,30 -26,44l-17 22c-6,7 -20,24 -27,30 -4,3 -6,7 -10,10l-10 9c-18,15 -37,28 -57,40 -25,15 -51,27 -78,38 -14,5 -28,11 -42,15 -20,6 -41,11 -62,15 -5,1 -11,2 -17,3 -17,3 -34,6 -51,7 -12,1 -24,2 -37,2 -3,0 -5,1 -8,1l-3 0c-3,0 -6,0 -9,0l-30 0c-9,0 -18,0 -26,-1l-18 -1c-21,-1 -64,-8 -84,-13 -15,-4 -31,-8 -45,-13 -52,-18 -95,-41 -138,-75 -2,-1 -4,-3 -5,-4 -1,-1 -2,-1 -3,-2 -1,-1 -1,-1 -2,-2 -6,-4 -10,-10 -15,-14 -4,-3 -6,-7 -9,-10 -8,-8 -15,-17 -22,-26 -3,-4 -6,-7 -9,-11l-12 -17c-9,-14 -17,-28 -24,-43 -17,-34 -26,-69 -28,-108 -1,-10 0,-26 2,-37 1,-6 1,-11 2,-17 5,-34 14,-62 22,-94 3,-10 6,-20 8,-30 9,-37 19,-59 6,-98 -2,-5 -3,-9 -5,-14 -1,-2 -2,-4 -3,-6 -7,-16 -28,-45 -39,-58l-25 -29c-1,-1 -1,-1 -2,-2 -1,-2 -4,-3 -4,-5l0 0c2,1 4,1 5,2 2,1 3,1 5,2 17,6 34,15 49,24 18,10 34,23 49,38 3,3 5,5 7,7 1,2 2,2 3,4 8,8 15,19 21,29 1,2 2,3 3,5 1,2 2,2 2,4 11,21 17,40 21,65 1,10 1,12 1,21 0,3 1,3 1,6 0,9 -1,18 -2,27 -1,17 -6,32 -10,48 12,-8 29,-35 34,-49 20,-44 19,-92 6,-140 -6,-21 -15,-40 -24,-59l-5 -9c-2,-3 -3,-6 -5,-9l-16 -26c-2,-3 -3,-5 -5,-8 -3,-6 -6,-11 -9,-18 -9,-19 -17,-39 -24,-59 -7,-25 -13,-50 -13,-77 0,-3 -1,-3 -1,-6 0,-10 2,-29 3,-38 2,-18 10,-42 19,-57 8,-13 8,-15 19,-29l10 -11c1,-1 2,-2 3,-3l11 -10c5,-4 22,-19 27,-20l-6 14c-15,36 -20,81 -11,118 7,29 18,52 35,74 2,2 3,4 4,5l18 21c5,6 20,18 26,24 5,5 11,9 17,13 16,12 29,20 44,35 1,1 2,2 3,3 6,5 12,12 17,18l17 22c13,20 17,31 24,52 1,3 -1,-2 0,1 0,0 0,0 0,0 0,0 0,0 0,0 1,-2 1,-5 1,-7 3,-16 7,-31 10,-46 4,-21 4,-37 -1,-58 -4,-17 -8,-34 -14,-51 -5,-12 -9,-24 -14,-35l-16 -33c-7,-14 -15,-28 -22,-43 -4,-7 -7,-14 -11,-21 -25,-49 -37,-104 -32,-159 2,-18 6,-36 12,-53 6,-16 12,-30 21,-44 8,-13 17,-26 27,-38 10,-11 20,-23 32,-33 1,-1 1,-1 2,-2 27,-24 64,-47 97,-61 4,-2 7,-3 11,-5 2,-1 4,-1 6,-2 2,-1 4,-2 6,-2 0,1 -2,5 -3,6 -1,2 -2,4 -3,6 -2,4 -4,8 -6,13 -2,5 -4,9 -6,13 -5,14 -10,28 -13,43 -5,25 -6,43 -5,69 2,42 16,80 34,116 6,12 13,24 20,36 7,12 15,23 22,34 1,2 3,4 4,6 11,17 35,47 48,64l44 50c1,2 3,3 5,5 3,3 6,6 10,10 2,2 3,3 5,5 31,31 55,55 77,92l10 18c17,32 31,70 37,113 1,6 1,11 2,17 0,2 1,6 1,9l1 27c0,17 -2,34 -6,51l-8 29 6 -14c2,-5 4,-10 6,-15 10,-26 17,-53 22,-79 8,-41 10,-69 10,-112 0,-13 -1,-18 -2,-29l-3 -27c-7,-47 -20,-88 -36,-126 -2,-5 -11,-23 -13,-28 -1,-2 -2,-4 -3,-7 -6,-12 -19,-34 -27,-45l-12 -18c-1,-2 -3,-4 -4,-6 6,3 26,20 33,26 8,6 27,24 35,31l45 47c2,2 2,3 4,5 2,2 2,3 4,4 6,6 28,34 33,41 1,2 2,3 4,5 11,15 24,34 33,49l29 55c2,4 3,7 5,11 7,17 12,30 18,48 15,47 22,94 22,144 0,3 -1,4 -1,8 0,13 -1,26 -3,38 -1,4 -1,10 -2,14 -1,9 -4,19 -5,28 -1,5 -2,9 -3,14 -7,27 -21,65 -34,91l-11 22c-1,2 -2,3 -3,5l-18 31c3,-2 8,-8 10,-11 1,-1 2,-2 3,-4l12 -15c25,-33 40,-54 62,-89 2,-3 3,-6 5,-9 3,-6 7,-12 10,-18 1,-1 1,-3 2,-4l7 -13c6,-12 12,-24 18,-37 6,-13 11,-26 16,-39 4,-10 7,-21 10,-31l2 -8c1,-2 0,-1 1,-2 0,6 1,12 1,18zm-160 261l-1 1 1 -1zm-129 -208c0,0 0,0 0,0l0 0zm1 -1c0,-1 1,0 0,0 0,0 0,2 0,0zm1 -2l0 0c0,0 0,0 0,0zm1 -2l0 1 0 -1z"/>
   <path class="fil1" d="M1361 655c0,23 -1,33 6,56 3,12 8,21 13,31 3,5 5,9 8,14l13 20c2,3 14,18 14,20 7,0 16,-18 18,-22 8,-15 14,-26 20,-42 1,-3 2,-5 3,-7 1,-3 2,-5 3,-8l4 -16c3,-11 2,-19 2,-30 0,-27 -16,-72 -23,-100 -6,-23 -8,-52 0,-75 1,-3 2,-7 3,-9 -2,1 0,0 -2,2 -1,1 -1,1 -2,2 -2,2 -2,3 -4,4 -8,8 -15,17 -22,25 -33,41 -54,83 -54,136z"/>
   <path class="fil1" d="M1523 726c0,18 -6,35 -10,49l-4 11c-8,29 -11,44 1,72 6,14 17,36 27,45 2,-1 7,-8 9,-10 6,-7 11,-14 16,-22 15,-25 18,-48 14,-78 -3,-24 -19,-52 -36,-70l-9 -10c-3,-3 -12,-13 -15,-15 0,3 6,13 6,29z"/>
  </g>
  <path class="fil2 str0" d="M809 839l812 0c34,0 63,17 76,41l-67 13 -51 0 0 92 12 0c0,21 1,45 2,71l-14 0 0 92 20 0c2,23 3,47 5,71l-25 0 0 92 31 0c1,25 2,49 3,71l-34 0 0 92 27 0c-2,5 -4,8 -6,10 -23,14 -53,13 -86,10l0 -112 -591 0 0 419 323 0c13,18 30,35 50,49l-487 0c-46,0 -83,-31 -83,-69l0 -874c0,-38 37,-69 83,-69zm-17 54l66 0 0 92 -66 0 0 -92zm0 163l66 0 0 92 -66 0 0 -92zm0 163l66 0 0 92 -66 0 0 -92zm0 163l66 0 0 92 -66 0 0 -92zm0 163l66 0 0 92 -66 0 0 -92zm0 163l66 0 0 92 -66 0 0 -92zm131 -815l591 0 0 419 -591 0 0 -419zm868 775c0,112 -121,242 -271,242 -150,0 -271,-91 -271,-203 0,-50 24,-118 86,-153 40,-23 95,-41 150,-43 51,-1 101,14 135,-7 35,-22 -14,-372 -7,-510 2,-33 26,-51 36,-53l66 -13c101,7 304,70 355,148 51,77 -18,187 -52,242 -34,56 -34,58 -31,24 4,-34 -9,-91 -17,-130 -8,-39 -13,-61 -41,-72 -29,-11 -103,-49 -130,-42 -27,7 -4,551 -7,570z"/>
  <circle class="fil3 str1" cx="1262" cy="1274" r="1085"/>
 </g>
</svg>
