<?xml version="1.0" encoding="UTF-8"?>
<!DOCTYPE svg PUBLIC "-//W3C//DTD SVG 1.1//EN" "http://www.w3.org/Graphics/SVG/1.1/DTD/svg11.dtd">
<!-- Creator: CorelDRAW 2017 -->
<svg xmlns="http://www.w3.org/2000/svg" xml:space="preserve" width="26.5mm" height="32mm" version="1.1" style="shape-rendering:geometricPrecision; text-rendering:geometricPrecision; image-rendering:optimizeQuality; fill-rule:evenodd; clip-rule:evenodd"
viewBox="0 0 2650 3200"
 xmlns:xlink="http://www.w3.org/1999/xlink">
 <defs>
  <style type="text/css">
   <![CDATA[
    .str0 {stroke:#FEFEFE;stroke-width:39.69}
    .fil0 {fill:none}
    .fil1 {fill:#FEFEFE}
   ]]>
  </style>
 </defs>
 <g id="Capa_x0020_1">
  <metadata id="CorelCorpID_0Corel-Layer"/>
  <g id="_1962465464592">
   <rect id="canvas_background" class="fil0" x="42" y="13" width="2566" height="3175"/>
   <g id="canvasGrid" display="none">
    <rect class="fil0" x="68" y="39" width="2514" height="3122"/>
   </g>
  </g>
  <path id="svg_4" class="fil1 str0" d="M401 210l286 387c86,117 228,308 314,424l286 387c86,117 86,308 0,424l-286 387c-86,117 -228,308 -314,424l-286 387c-86,117 -157,21 -157,-212l0 -2397c0,-234 71,-329 157,-212l0 0 0 0z"/>
  <path id="svg_8" class="fil1 str0" d="M1517 210l286 387c86,117 218,308 304,424l286 387c86,117 96,308 10,424l-286 387c-86,117 -228,308 -314,424l-286 387c-86,117 -157,21 -157,-212l0 -2397c0,-234 71,-329 157,-212l0 0 0 0z"/>
 </g>
</svg>
